<mxfile host="app.diagrams.net" agent="Mozilla/5.0 (Windows NT 10.0; Win64; x64) AppleWebKit/537.36 (KHTML, like Gecko) Chrome/131.0.0.0 Safari/537.36 Edg/131.0.0.0" version="25.0.3">
  <diagram name="Página-1" id="7lHeu8c5Pk3ilktKyxcA">
    <mxGraphModel grid="1" page="1" gridSize="10" guides="1" tooltips="1" connect="1" arrows="1" fold="1" pageScale="1" pageWidth="4681" pageHeight="3300" math="0" shadow="0">
      <root>
        <mxCell id="0" />
        <mxCell id="1" parent="0" />
        <mxCell id="2aKKIYfe2P1ObAEWsnmQ-203" value="" style="rounded=0;whiteSpace=wrap;html=1;fillColor=none;strokeColor=#004C99;" vertex="1" parent="1">
          <mxGeometry x="320" y="2000" width="720" height="400" as="geometry" />
        </mxCell>
        <mxCell id="2aKKIYfe2P1ObAEWsnmQ-39" value="" style="rounded=0;whiteSpace=wrap;html=1;fillColor=none;strokeColor=#004C99;" vertex="1" parent="1">
          <mxGeometry x="320" y="120" width="720" height="520" as="geometry" />
        </mxCell>
        <mxCell id="2aKKIYfe2P1ObAEWsnmQ-101" value="" style="rounded=0;whiteSpace=wrap;html=1;fillColor=none;strokeColor=#004C99;" vertex="1" parent="1">
          <mxGeometry x="320" y="680" width="720" height="400" as="geometry" />
        </mxCell>
        <mxCell id="lrI3-evYL8DoL2b4seNy-6" value="&lt;font color=&quot;#ffffff&quot;&gt;Crear de cuenta&lt;/font&gt;" style="ellipse;whiteSpace=wrap;html=1;fillColor=#3399FF;strokeColor=none;" vertex="1" parent="1">
          <mxGeometry x="635" y="310" width="120" height="60" as="geometry" />
        </mxCell>
        <mxCell id="2aKKIYfe2P1ObAEWsnmQ-10" style="rounded=0;orthogonalLoop=1;jettySize=auto;html=1;entryX=0;entryY=0.5;entryDx=0;entryDy=0;" edge="1" parent="1" source="lrI3-evYL8DoL2b4seNy-5" target="2aKKIYfe2P1ObAEWsnmQ-7">
          <mxGeometry relative="1" as="geometry" />
        </mxCell>
        <mxCell id="2aKKIYfe2P1ObAEWsnmQ-7" value="&lt;span style=&quot;color: rgb(255, 255, 255);&quot;&gt;Ingresar al Sistema&lt;/span&gt;" style="ellipse;whiteSpace=wrap;html=1;fillColor=#3399FF;strokeColor=none;" vertex="1" parent="1">
          <mxGeometry x="360" y="190" width="120" height="60" as="geometry" />
        </mxCell>
        <mxCell id="2aKKIYfe2P1ObAEWsnmQ-11" value="" style="html=1;labelBackgroundColor=#ffffff;jettySize=auto;orthogonalLoop=1;fontSize=14;rounded=0;jumpStyle=gap;startArrow=none;endArrow=block;endFill=1;strokeWidth=1;dashed=1;exitX=0;exitY=0;exitDx=0;exitDy=0;entryX=1;entryY=0.5;entryDx=0;entryDy=0;" edge="1" parent="1" source="lrI3-evYL8DoL2b4seNy-6" target="2aKKIYfe2P1ObAEWsnmQ-7">
          <mxGeometry width="48" height="48" relative="1" as="geometry">
            <mxPoint x="350" y="170" as="sourcePoint" />
            <mxPoint x="530" y="171" as="targetPoint" />
          </mxGeometry>
        </mxCell>
        <mxCell id="2aKKIYfe2P1ObAEWsnmQ-12" value="&amp;lt;&amp;lt;incluir&amp;gt;&amp;gt;" style="edgeLabel;html=1;align=center;verticalAlign=middle;resizable=0;points=[];" connectable="0" vertex="1" parent="2aKKIYfe2P1ObAEWsnmQ-11">
          <mxGeometry x="-0.1046" relative="1" as="geometry">
            <mxPoint as="offset" />
          </mxGeometry>
        </mxCell>
        <mxCell id="2aKKIYfe2P1ObAEWsnmQ-13" value="&lt;font color=&quot;#ffffff&quot;&gt;Ingresar Información personal del cliente&lt;/font&gt;" style="ellipse;whiteSpace=wrap;html=1;fillColor=#3399FF;strokeColor=none;" vertex="1" parent="1">
          <mxGeometry x="620" y="185" width="150" height="70" as="geometry" />
        </mxCell>
        <mxCell id="2aKKIYfe2P1ObAEWsnmQ-14" value="" style="html=1;labelBackgroundColor=#ffffff;jettySize=auto;orthogonalLoop=1;fontSize=14;rounded=0;jumpStyle=gap;startArrow=none;endArrow=block;endFill=1;strokeWidth=1;dashed=1;exitX=0.5;exitY=0;exitDx=0;exitDy=0;entryX=0.5;entryY=1;entryDx=0;entryDy=0;" edge="1" parent="1" source="lrI3-evYL8DoL2b4seNy-6" target="2aKKIYfe2P1ObAEWsnmQ-13">
          <mxGeometry width="48" height="48" relative="1" as="geometry">
            <mxPoint x="350" y="170" as="sourcePoint" />
            <mxPoint x="530" y="171" as="targetPoint" />
          </mxGeometry>
        </mxCell>
        <mxCell id="2aKKIYfe2P1ObAEWsnmQ-15" value="&amp;lt;&amp;lt;incluir&amp;gt;&amp;gt;" style="edgeLabel;html=1;align=center;verticalAlign=middle;resizable=0;points=[];" connectable="0" vertex="1" parent="2aKKIYfe2P1ObAEWsnmQ-14">
          <mxGeometry x="-0.1046" relative="1" as="geometry">
            <mxPoint as="offset" />
          </mxGeometry>
        </mxCell>
        <mxCell id="2aKKIYfe2P1ObAEWsnmQ-16" value="&lt;font color=&quot;#ffffff&quot;&gt;Ingresar de Tipo de Cuenta&lt;/font&gt;" style="ellipse;whiteSpace=wrap;html=1;fillColor=#3399FF;strokeColor=none;" vertex="1" parent="1">
          <mxGeometry x="867.5" y="185" width="120" height="70" as="geometry" />
        </mxCell>
        <mxCell id="2aKKIYfe2P1ObAEWsnmQ-17" value="" style="html=1;labelBackgroundColor=#ffffff;jettySize=auto;orthogonalLoop=1;fontSize=14;rounded=0;jumpStyle=gap;startArrow=none;endArrow=block;endFill=1;strokeWidth=1;dashed=1;exitX=1;exitY=0;exitDx=0;exitDy=0;entryX=0;entryY=0.5;entryDx=0;entryDy=0;" edge="1" parent="1" source="lrI3-evYL8DoL2b4seNy-6" target="2aKKIYfe2P1ObAEWsnmQ-16">
          <mxGeometry width="48" height="48" relative="1" as="geometry">
            <mxPoint x="472" y="329" as="sourcePoint" />
            <mxPoint x="580" y="305" as="targetPoint" />
          </mxGeometry>
        </mxCell>
        <mxCell id="2aKKIYfe2P1ObAEWsnmQ-18" value="&amp;lt;&amp;lt;incluir&amp;gt;&amp;gt;" style="edgeLabel;html=1;align=center;verticalAlign=middle;resizable=0;points=[];" connectable="0" vertex="1" parent="2aKKIYfe2P1ObAEWsnmQ-17">
          <mxGeometry x="-0.1046" relative="1" as="geometry">
            <mxPoint as="offset" />
          </mxGeometry>
        </mxCell>
        <mxCell id="2aKKIYfe2P1ObAEWsnmQ-21" value="&lt;font color=&quot;#ffffff&quot;&gt;Ingresar Respuesta Seguridad&lt;/font&gt;" style="ellipse;whiteSpace=wrap;html=1;fillColor=#3399FF;strokeColor=none;" vertex="1" parent="1">
          <mxGeometry x="860" y="310" width="135" height="70" as="geometry" />
        </mxCell>
        <mxCell id="2aKKIYfe2P1ObAEWsnmQ-22" value="" style="html=1;labelBackgroundColor=#ffffff;jettySize=auto;orthogonalLoop=1;fontSize=14;rounded=0;jumpStyle=gap;startArrow=none;endArrow=block;endFill=1;strokeWidth=1;dashed=1;exitX=0.987;exitY=0.632;exitDx=0;exitDy=0;entryX=0;entryY=0.5;entryDx=0;entryDy=0;exitPerimeter=0;" edge="1" parent="1" source="lrI3-evYL8DoL2b4seNy-6" target="2aKKIYfe2P1ObAEWsnmQ-21">
          <mxGeometry width="48" height="48" relative="1" as="geometry">
            <mxPoint x="480" y="425" as="sourcePoint" />
            <mxPoint x="580" y="390" as="targetPoint" />
          </mxGeometry>
        </mxCell>
        <mxCell id="2aKKIYfe2P1ObAEWsnmQ-23" value="&amp;lt;&amp;lt;incluir&amp;gt;&amp;gt;" style="edgeLabel;html=1;align=center;verticalAlign=middle;resizable=0;points=[];" connectable="0" vertex="1" parent="2aKKIYfe2P1ObAEWsnmQ-22">
          <mxGeometry x="-0.1046" relative="1" as="geometry">
            <mxPoint as="offset" />
          </mxGeometry>
        </mxCell>
        <mxCell id="2aKKIYfe2P1ObAEWsnmQ-24" value="&lt;font color=&quot;#ffffff&quot;&gt;Ingresar Monto Inicial&lt;/font&gt;" style="ellipse;whiteSpace=wrap;html=1;fillColor=#3399FF;strokeColor=none;" vertex="1" parent="1">
          <mxGeometry x="627.5" y="545" width="135" height="70" as="geometry" />
        </mxCell>
        <mxCell id="2aKKIYfe2P1ObAEWsnmQ-25" value="" style="html=1;labelBackgroundColor=#ffffff;jettySize=auto;orthogonalLoop=1;fontSize=14;rounded=0;jumpStyle=gap;startArrow=none;endArrow=block;endFill=1;strokeWidth=1;dashed=1;exitX=0.5;exitY=1;exitDx=0;exitDy=0;entryX=0.5;entryY=0;entryDx=0;entryDy=0;" edge="1" parent="1" source="lrI3-evYL8DoL2b4seNy-6" target="2aKKIYfe2P1ObAEWsnmQ-24">
          <mxGeometry width="48" height="48" relative="1" as="geometry">
            <mxPoint x="462" y="440" as="sourcePoint" />
            <mxPoint x="580" y="469" as="targetPoint" />
          </mxGeometry>
        </mxCell>
        <mxCell id="2aKKIYfe2P1ObAEWsnmQ-26" value="&amp;lt;&amp;lt;incluir&amp;gt;&amp;gt;" style="edgeLabel;html=1;align=center;verticalAlign=middle;resizable=0;points=[];" connectable="0" vertex="1" parent="2aKKIYfe2P1ObAEWsnmQ-25">
          <mxGeometry x="-0.1046" relative="1" as="geometry">
            <mxPoint as="offset" />
          </mxGeometry>
        </mxCell>
        <mxCell id="2aKKIYfe2P1ObAEWsnmQ-27" value="&lt;font color=&quot;#ffffff&quot;&gt;Generar Automatica mente el Número de Cuenta&lt;/font&gt;" style="ellipse;whiteSpace=wrap;html=1;fillColor=#3399FF;strokeColor=none;" vertex="1" parent="1">
          <mxGeometry x="330" y="420" width="180" height="60" as="geometry" />
        </mxCell>
        <mxCell id="2aKKIYfe2P1ObAEWsnmQ-28" value="" style="html=1;labelBackgroundColor=#ffffff;jettySize=auto;orthogonalLoop=1;fontSize=14;rounded=0;jumpStyle=gap;startArrow=none;endArrow=block;endFill=1;strokeWidth=1;dashed=1;exitX=0;exitY=1;exitDx=0;exitDy=0;entryX=1;entryY=0.5;entryDx=0;entryDy=0;" edge="1" parent="1" source="lrI3-evYL8DoL2b4seNy-6" target="2aKKIYfe2P1ObAEWsnmQ-27">
          <mxGeometry width="48" height="48" relative="1" as="geometry">
            <mxPoint x="410" y="430" as="sourcePoint" />
            <mxPoint x="590" y="431" as="targetPoint" />
          </mxGeometry>
        </mxCell>
        <mxCell id="2aKKIYfe2P1ObAEWsnmQ-29" value="&amp;lt;&amp;lt;incluir&amp;gt;&amp;gt;" style="edgeLabel;html=1;align=center;verticalAlign=middle;resizable=0;points=[];" connectable="0" vertex="1" parent="2aKKIYfe2P1ObAEWsnmQ-28">
          <mxGeometry x="-0.1046" relative="1" as="geometry">
            <mxPoint as="offset" />
          </mxGeometry>
        </mxCell>
        <mxCell id="2aKKIYfe2P1ObAEWsnmQ-32" value="&lt;font color=&quot;#ffffff&quot;&gt;Ingresar Pregunta de Seguridad&lt;/font&gt;" style="ellipse;whiteSpace=wrap;html=1;fillColor=#3399FF;strokeColor=none;" vertex="1" parent="1">
          <mxGeometry x="860" y="545" width="135" height="70" as="geometry" />
        </mxCell>
        <mxCell id="2aKKIYfe2P1ObAEWsnmQ-33" value="" style="html=1;labelBackgroundColor=#ffffff;jettySize=auto;orthogonalLoop=1;fontSize=14;rounded=0;jumpStyle=gap;startArrow=none;endArrow=block;endFill=1;strokeWidth=1;dashed=1;exitX=0.5;exitY=1;exitDx=0;exitDy=0;entryX=0.5;entryY=0;entryDx=0;entryDy=0;" edge="1" parent="1" source="2aKKIYfe2P1ObAEWsnmQ-21" target="2aKKIYfe2P1ObAEWsnmQ-32">
          <mxGeometry width="48" height="48" relative="1" as="geometry">
            <mxPoint x="760" y="340" as="sourcePoint" />
            <mxPoint x="810" y="320" as="targetPoint" />
          </mxGeometry>
        </mxCell>
        <mxCell id="2aKKIYfe2P1ObAEWsnmQ-34" value="&amp;lt;&amp;lt;incluir&amp;gt;&amp;gt;" style="edgeLabel;html=1;align=center;verticalAlign=middle;resizable=0;points=[];" connectable="0" vertex="1" parent="2aKKIYfe2P1ObAEWsnmQ-33">
          <mxGeometry x="-0.1046" relative="1" as="geometry">
            <mxPoint as="offset" />
          </mxGeometry>
        </mxCell>
        <mxCell id="2aKKIYfe2P1ObAEWsnmQ-36" value="" style="html=1;labelBackgroundColor=#ffffff;jettySize=auto;orthogonalLoop=1;fontSize=14;rounded=0;jumpStyle=gap;startArrow=none;endArrow=block;endFill=1;strokeWidth=1;dashed=1;exitX=0.5;exitY=1;exitDx=0;exitDy=0;entryX=0.5;entryY=0;entryDx=0;entryDy=0;" edge="1" parent="1" source="2aKKIYfe2P1ObAEWsnmQ-27" target="2aKKIYfe2P1ObAEWsnmQ-38">
          <mxGeometry width="48" height="48" relative="1" as="geometry">
            <mxPoint x="420" y="500" as="sourcePoint" />
            <mxPoint x="590" y="561" as="targetPoint" />
          </mxGeometry>
        </mxCell>
        <mxCell id="2aKKIYfe2P1ObAEWsnmQ-37" value="&amp;lt;&amp;lt;incluir&amp;gt;&amp;gt;" style="edgeLabel;html=1;align=center;verticalAlign=middle;resizable=0;points=[];" connectable="0" vertex="1" parent="2aKKIYfe2P1ObAEWsnmQ-36">
          <mxGeometry x="-0.1046" relative="1" as="geometry">
            <mxPoint as="offset" />
          </mxGeometry>
        </mxCell>
        <mxCell id="2aKKIYfe2P1ObAEWsnmQ-38" value="&lt;font color=&quot;#ffffff&quot;&gt;Verificar de Identidad&lt;/font&gt;" style="ellipse;whiteSpace=wrap;html=1;fillColor=#3399FF;strokeColor=none;" vertex="1" parent="1">
          <mxGeometry x="365" y="550" width="110" height="60" as="geometry" />
        </mxCell>
        <mxCell id="2aKKIYfe2P1ObAEWsnmQ-75" style="rounded=0;orthogonalLoop=1;jettySize=auto;html=1;entryX=0;entryY=0.5;entryDx=0;entryDy=0;" edge="1" parent="1" source="2aKKIYfe2P1ObAEWsnmQ-104" target="2aKKIYfe2P1ObAEWsnmQ-76">
          <mxGeometry relative="1" as="geometry" />
        </mxCell>
        <mxCell id="2aKKIYfe2P1ObAEWsnmQ-103" value="" style="group" connectable="0" vertex="1" parent="1">
          <mxGeometry x="220" y="750" width="60" height="90" as="geometry" />
        </mxCell>
        <mxCell id="2aKKIYfe2P1ObAEWsnmQ-104" value="" style="image;aspect=fixed;perimeter=ellipsePerimeter;html=1;align=center;shadow=0;dashed=0;spacingTop=3;image=img/lib/active_directory/user.svg;" vertex="1" parent="2aKKIYfe2P1ObAEWsnmQ-103">
          <mxGeometry x="18.900000000000006" width="22.2" height="60" as="geometry" />
        </mxCell>
        <mxCell id="2aKKIYfe2P1ObAEWsnmQ-105" value="Usuario" style="text;html=1;align=center;verticalAlign=middle;resizable=0;points=[];autosize=1;strokeColor=none;fillColor=none;" vertex="1" parent="2aKKIYfe2P1ObAEWsnmQ-103">
          <mxGeometry y="60" width="60" height="30" as="geometry" />
        </mxCell>
        <mxCell id="2aKKIYfe2P1ObAEWsnmQ-74" value="&lt;font color=&quot;#ffffff&quot;&gt;Actualizar Datos del Cliente&lt;/font&gt;" style="ellipse;whiteSpace=wrap;html=1;fillColor=#3399FF;strokeColor=none;" vertex="1" parent="1">
          <mxGeometry x="360" y="870" width="120" height="60" as="geometry" />
        </mxCell>
        <mxCell id="2aKKIYfe2P1ObAEWsnmQ-76" value="&lt;font color=&quot;#ffffff&quot;&gt;Ingresar al Sistema&lt;/font&gt;" style="ellipse;whiteSpace=wrap;html=1;fillColor=#3399FF;strokeColor=none;" vertex="1" parent="1">
          <mxGeometry x="360" y="750" width="120" height="60" as="geometry" />
        </mxCell>
        <mxCell id="2aKKIYfe2P1ObAEWsnmQ-77" value="" style="html=1;labelBackgroundColor=#ffffff;jettySize=auto;orthogonalLoop=1;fontSize=14;rounded=0;jumpStyle=gap;startArrow=none;endArrow=block;endFill=1;strokeWidth=1;dashed=1;exitX=0.5;exitY=0;exitDx=0;exitDy=0;entryX=0.5;entryY=1;entryDx=0;entryDy=0;" edge="1" parent="1" source="2aKKIYfe2P1ObAEWsnmQ-74" target="2aKKIYfe2P1ObAEWsnmQ-76">
          <mxGeometry width="48" height="48" relative="1" as="geometry">
            <mxPoint x="350" y="730" as="sourcePoint" />
            <mxPoint x="530" y="731" as="targetPoint" />
          </mxGeometry>
        </mxCell>
        <mxCell id="2aKKIYfe2P1ObAEWsnmQ-78" value="&amp;lt;&amp;lt;incluir&amp;gt;&amp;gt;" style="edgeLabel;html=1;align=center;verticalAlign=middle;resizable=0;points=[];" connectable="0" vertex="1" parent="2aKKIYfe2P1ObAEWsnmQ-77">
          <mxGeometry x="-0.1046" relative="1" as="geometry">
            <mxPoint as="offset" />
          </mxGeometry>
        </mxCell>
        <mxCell id="2aKKIYfe2P1ObAEWsnmQ-79" value="&lt;font color=&quot;#ffffff&quot;&gt;Ingresar Datos Actualizados&lt;/font&gt;" style="ellipse;whiteSpace=wrap;html=1;fillColor=#3399FF;strokeColor=none;" vertex="1" parent="1">
          <mxGeometry x="605" y="745" width="150" height="70" as="geometry" />
        </mxCell>
        <mxCell id="2aKKIYfe2P1ObAEWsnmQ-80" value="" style="html=1;labelBackgroundColor=#ffffff;jettySize=auto;orthogonalLoop=1;fontSize=14;rounded=0;jumpStyle=gap;startArrow=none;endArrow=block;endFill=1;strokeWidth=1;dashed=1;exitX=1;exitY=0;exitDx=0;exitDy=0;entryX=0;entryY=0.5;entryDx=0;entryDy=0;" edge="1" parent="1" source="2aKKIYfe2P1ObAEWsnmQ-74" target="2aKKIYfe2P1ObAEWsnmQ-79">
          <mxGeometry width="48" height="48" relative="1" as="geometry">
            <mxPoint x="350" y="730" as="sourcePoint" />
            <mxPoint x="530" y="731" as="targetPoint" />
          </mxGeometry>
        </mxCell>
        <mxCell id="2aKKIYfe2P1ObAEWsnmQ-81" value="&amp;lt;&amp;lt;incluir&amp;gt;&amp;gt;" style="edgeLabel;html=1;align=center;verticalAlign=middle;resizable=0;points=[];" connectable="0" vertex="1" parent="2aKKIYfe2P1ObAEWsnmQ-80">
          <mxGeometry x="-0.1046" relative="1" as="geometry">
            <mxPoint as="offset" />
          </mxGeometry>
        </mxCell>
        <mxCell id="2aKKIYfe2P1ObAEWsnmQ-82" value="&lt;font color=&quot;#ffffff&quot;&gt;Capturar fecha y hora de actualización&lt;/font&gt;" style="ellipse;whiteSpace=wrap;html=1;fillColor=#3399FF;strokeColor=none;" vertex="1" parent="1">
          <mxGeometry x="625" y="865" width="110" height="70" as="geometry" />
        </mxCell>
        <mxCell id="2aKKIYfe2P1ObAEWsnmQ-83" value="" style="html=1;labelBackgroundColor=#ffffff;jettySize=auto;orthogonalLoop=1;fontSize=14;rounded=0;jumpStyle=gap;startArrow=none;endArrow=block;endFill=1;strokeWidth=1;dashed=1;exitX=1;exitY=0.5;exitDx=0;exitDy=0;entryX=0;entryY=0.5;entryDx=0;entryDy=0;" edge="1" parent="1" source="2aKKIYfe2P1ObAEWsnmQ-74" target="2aKKIYfe2P1ObAEWsnmQ-82">
          <mxGeometry width="48" height="48" relative="1" as="geometry">
            <mxPoint x="472" y="889" as="sourcePoint" />
            <mxPoint x="580" y="865" as="targetPoint" />
          </mxGeometry>
        </mxCell>
        <mxCell id="2aKKIYfe2P1ObAEWsnmQ-84" value="&amp;lt;&amp;lt;incluir&amp;gt;&amp;gt;" style="edgeLabel;html=1;align=center;verticalAlign=middle;resizable=0;points=[];" connectable="0" vertex="1" parent="2aKKIYfe2P1ObAEWsnmQ-83">
          <mxGeometry x="-0.1046" relative="1" as="geometry">
            <mxPoint as="offset" />
          </mxGeometry>
        </mxCell>
        <mxCell id="2aKKIYfe2P1ObAEWsnmQ-91" value="&lt;font color=&quot;#ffffff&quot;&gt;Validar Identidad&lt;/font&gt;" style="ellipse;whiteSpace=wrap;html=1;fillColor=#3399FF;strokeColor=none;" vertex="1" parent="1">
          <mxGeometry x="620" y="990" width="120" height="60" as="geometry" />
        </mxCell>
        <mxCell id="2aKKIYfe2P1ObAEWsnmQ-92" value="" style="html=1;labelBackgroundColor=#ffffff;jettySize=auto;orthogonalLoop=1;fontSize=14;rounded=0;jumpStyle=gap;startArrow=none;endArrow=block;endFill=1;strokeWidth=1;dashed=1;exitX=1;exitY=1;exitDx=0;exitDy=0;entryX=0;entryY=0.5;entryDx=0;entryDy=0;" edge="1" parent="1" source="2aKKIYfe2P1ObAEWsnmQ-74" target="2aKKIYfe2P1ObAEWsnmQ-91">
          <mxGeometry width="48" height="48" relative="1" as="geometry">
            <mxPoint x="410" y="990" as="sourcePoint" />
            <mxPoint x="590" y="991" as="targetPoint" />
          </mxGeometry>
        </mxCell>
        <mxCell id="2aKKIYfe2P1ObAEWsnmQ-93" value="&amp;lt;&amp;lt;incluir&amp;gt;&amp;gt;" style="edgeLabel;html=1;align=center;verticalAlign=middle;resizable=0;points=[];" connectable="0" vertex="1" parent="2aKKIYfe2P1ObAEWsnmQ-92">
          <mxGeometry x="-0.1046" relative="1" as="geometry">
            <mxPoint as="offset" />
          </mxGeometry>
        </mxCell>
        <mxCell id="2aKKIYfe2P1ObAEWsnmQ-97" value="" style="html=1;labelBackgroundColor=#ffffff;jettySize=auto;orthogonalLoop=1;fontSize=14;rounded=0;jumpStyle=gap;startArrow=none;endArrow=block;endFill=1;strokeWidth=1;dashed=1;exitX=1;exitY=0.5;exitDx=0;exitDy=0;entryX=0;entryY=0.5;entryDx=0;entryDy=0;" edge="1" parent="1" source="2aKKIYfe2P1ObAEWsnmQ-91" target="2aKKIYfe2P1ObAEWsnmQ-99">
          <mxGeometry width="48" height="48" relative="1" as="geometry">
            <mxPoint x="420" y="1060" as="sourcePoint" />
            <mxPoint x="590" y="1121" as="targetPoint" />
          </mxGeometry>
        </mxCell>
        <mxCell id="2aKKIYfe2P1ObAEWsnmQ-98" value="&amp;lt;&amp;lt;incluir&amp;gt;&amp;gt;" style="edgeLabel;html=1;align=center;verticalAlign=middle;resizable=0;points=[];" connectable="0" vertex="1" parent="2aKKIYfe2P1ObAEWsnmQ-97">
          <mxGeometry x="-0.1046" relative="1" as="geometry">
            <mxPoint as="offset" />
          </mxGeometry>
        </mxCell>
        <mxCell id="2aKKIYfe2P1ObAEWsnmQ-99" value="&lt;font color=&quot;#ffffff&quot;&gt;Responder Pregunta de Seguridad&lt;/font&gt;" style="ellipse;whiteSpace=wrap;html=1;fillColor=#3399FF;strokeColor=none;" vertex="1" parent="1">
          <mxGeometry x="852.5" y="990" width="150" height="60" as="geometry" />
        </mxCell>
        <mxCell id="2aKKIYfe2P1ObAEWsnmQ-102" value="Actualización de Datos del Cliente" style="text;html=1;align=center;verticalAlign=middle;resizable=0;points=[];autosize=1;strokeColor=none;fillColor=none;" vertex="1" parent="1">
          <mxGeometry x="320" y="680" width="210" height="30" as="geometry" />
        </mxCell>
        <mxCell id="2aKKIYfe2P1ObAEWsnmQ-40" value="Creacion de Cuenta Bancaria" style="text;html=1;align=center;verticalAlign=middle;resizable=0;points=[];autosize=1;strokeColor=none;fillColor=none;" vertex="1" parent="1">
          <mxGeometry x="320" y="120" width="180" height="30" as="geometry" />
        </mxCell>
        <mxCell id="2aKKIYfe2P1ObAEWsnmQ-111" value="" style="group" connectable="0" vertex="1" parent="1">
          <mxGeometry x="220" y="190" width="60" height="90" as="geometry" />
        </mxCell>
        <mxCell id="lrI3-evYL8DoL2b4seNy-5" value="" style="image;aspect=fixed;perimeter=ellipsePerimeter;html=1;align=center;shadow=0;dashed=0;spacingTop=3;image=img/lib/active_directory/user.svg;container=0;" vertex="1" parent="2aKKIYfe2P1ObAEWsnmQ-111">
          <mxGeometry x="18.900000000000006" width="22.2" height="60" as="geometry" />
        </mxCell>
        <mxCell id="2aKKIYfe2P1ObAEWsnmQ-41" value="Usuario" style="text;html=1;align=center;verticalAlign=middle;resizable=0;points=[];autosize=1;strokeColor=none;fillColor=none;container=0;" vertex="1" parent="2aKKIYfe2P1ObAEWsnmQ-111">
          <mxGeometry y="60" width="60" height="30" as="geometry" />
        </mxCell>
        <mxCell id="2aKKIYfe2P1ObAEWsnmQ-112" value="" style="group" connectable="0" vertex="1" parent="1">
          <mxGeometry x="220" y="310" width="60" height="90" as="geometry" />
        </mxCell>
        <mxCell id="2aKKIYfe2P1ObAEWsnmQ-113" value="" style="image;aspect=fixed;perimeter=ellipsePerimeter;html=1;align=center;shadow=0;dashed=0;spacingTop=3;image=img/lib/active_directory/user.svg;container=0;" vertex="1" parent="2aKKIYfe2P1ObAEWsnmQ-112">
          <mxGeometry x="18.900000000000006" width="22.2" height="60" as="geometry" />
        </mxCell>
        <mxCell id="2aKKIYfe2P1ObAEWsnmQ-114" value="Banco" style="text;html=1;align=center;verticalAlign=middle;resizable=0;points=[];autosize=1;strokeColor=none;fillColor=none;container=0;" vertex="1" parent="2aKKIYfe2P1ObAEWsnmQ-112">
          <mxGeometry y="60" width="60" height="30" as="geometry" />
        </mxCell>
        <mxCell id="2aKKIYfe2P1ObAEWsnmQ-116" style="edgeStyle=orthogonalEdgeStyle;curved=1;rounded=0;orthogonalLoop=1;jettySize=auto;html=1;entryX=0;entryY=0.5;entryDx=0;entryDy=0;" edge="1" parent="1" source="2aKKIYfe2P1ObAEWsnmQ-113" target="lrI3-evYL8DoL2b4seNy-6">
          <mxGeometry relative="1" as="geometry" />
        </mxCell>
        <mxCell id="2aKKIYfe2P1ObAEWsnmQ-117" value="" style="group" connectable="0" vertex="1" parent="1">
          <mxGeometry x="220" y="870" width="60" height="90" as="geometry" />
        </mxCell>
        <mxCell id="2aKKIYfe2P1ObAEWsnmQ-118" value="" style="image;aspect=fixed;perimeter=ellipsePerimeter;html=1;align=center;shadow=0;dashed=0;spacingTop=3;image=img/lib/active_directory/user.svg;" vertex="1" parent="2aKKIYfe2P1ObAEWsnmQ-117">
          <mxGeometry x="18.900000000000006" width="22.2" height="60" as="geometry" />
        </mxCell>
        <mxCell id="2aKKIYfe2P1ObAEWsnmQ-119" value="Banco" style="text;html=1;align=center;verticalAlign=middle;resizable=0;points=[];autosize=1;strokeColor=none;fillColor=none;" vertex="1" parent="2aKKIYfe2P1ObAEWsnmQ-117">
          <mxGeometry y="60" width="60" height="30" as="geometry" />
        </mxCell>
        <mxCell id="2aKKIYfe2P1ObAEWsnmQ-120" style="edgeStyle=orthogonalEdgeStyle;curved=1;rounded=0;orthogonalLoop=1;jettySize=auto;html=1;entryX=0;entryY=0.5;entryDx=0;entryDy=0;" edge="1" parent="1" source="2aKKIYfe2P1ObAEWsnmQ-118" target="2aKKIYfe2P1ObAEWsnmQ-74">
          <mxGeometry relative="1" as="geometry" />
        </mxCell>
        <mxCell id="2aKKIYfe2P1ObAEWsnmQ-121" value="&lt;font color=&quot;#ffffff&quot;&gt;Guardar Actualización en Historial&lt;/font&gt;" style="ellipse;whiteSpace=wrap;html=1;fillColor=#3399FF;strokeColor=none;" vertex="1" parent="1">
          <mxGeometry x="365" y="990" width="110" height="60" as="geometry" />
        </mxCell>
        <mxCell id="2aKKIYfe2P1ObAEWsnmQ-122" value="" style="html=1;labelBackgroundColor=#ffffff;jettySize=auto;orthogonalLoop=1;fontSize=14;rounded=0;jumpStyle=gap;startArrow=none;endArrow=block;endFill=1;strokeWidth=1;dashed=1;exitX=0.5;exitY=0;exitDx=0;exitDy=0;entryX=0.5;entryY=1;entryDx=0;entryDy=0;" edge="1" parent="1" source="2aKKIYfe2P1ObAEWsnmQ-121" target="2aKKIYfe2P1ObAEWsnmQ-74">
          <mxGeometry width="48" height="48" relative="1" as="geometry">
            <mxPoint x="430" y="880" as="sourcePoint" />
            <mxPoint x="430" y="820" as="targetPoint" />
          </mxGeometry>
        </mxCell>
        <mxCell id="2aKKIYfe2P1ObAEWsnmQ-123" value="&amp;lt;&amp;lt;incluir&amp;gt;&amp;gt;" style="edgeLabel;html=1;align=center;verticalAlign=middle;resizable=0;points=[];" connectable="0" vertex="1" parent="2aKKIYfe2P1ObAEWsnmQ-122">
          <mxGeometry x="-0.1046" relative="1" as="geometry">
            <mxPoint as="offset" />
          </mxGeometry>
        </mxCell>
        <mxCell id="2aKKIYfe2P1ObAEWsnmQ-124" value="" style="rounded=0;whiteSpace=wrap;html=1;fillColor=none;strokeColor=#004C99;" vertex="1" parent="1">
          <mxGeometry x="320" y="1120" width="720" height="400" as="geometry" />
        </mxCell>
        <mxCell id="2aKKIYfe2P1ObAEWsnmQ-125" style="rounded=0;orthogonalLoop=1;jettySize=auto;html=1;entryX=0;entryY=0.5;entryDx=0;entryDy=0;" edge="1" parent="1" source="2aKKIYfe2P1ObAEWsnmQ-127" target="2aKKIYfe2P1ObAEWsnmQ-130">
          <mxGeometry relative="1" as="geometry" />
        </mxCell>
        <mxCell id="2aKKIYfe2P1ObAEWsnmQ-126" value="" style="group" connectable="0" vertex="1" parent="1">
          <mxGeometry x="220" y="1190" width="60" height="90" as="geometry" />
        </mxCell>
        <mxCell id="2aKKIYfe2P1ObAEWsnmQ-127" value="" style="image;aspect=fixed;perimeter=ellipsePerimeter;html=1;align=center;shadow=0;dashed=0;spacingTop=3;image=img/lib/active_directory/user.svg;" vertex="1" parent="2aKKIYfe2P1ObAEWsnmQ-126">
          <mxGeometry x="18.900000000000006" width="22.2" height="60" as="geometry" />
        </mxCell>
        <mxCell id="2aKKIYfe2P1ObAEWsnmQ-128" value="Usuario" style="text;html=1;align=center;verticalAlign=middle;resizable=0;points=[];autosize=1;strokeColor=none;fillColor=none;" vertex="1" parent="2aKKIYfe2P1ObAEWsnmQ-126">
          <mxGeometry y="60" width="60" height="30" as="geometry" />
        </mxCell>
        <mxCell id="2aKKIYfe2P1ObAEWsnmQ-129" value="&lt;font color=&quot;#ffffff&quot;&gt;Crear Tarjeta&lt;/font&gt;" style="ellipse;whiteSpace=wrap;html=1;fillColor=#3399FF;strokeColor=none;" vertex="1" parent="1">
          <mxGeometry x="600" y="1310" width="120" height="60" as="geometry" />
        </mxCell>
        <mxCell id="2aKKIYfe2P1ObAEWsnmQ-130" value="&lt;font color=&quot;#ffffff&quot;&gt;Ingresar al Sistema&lt;/font&gt;" style="ellipse;whiteSpace=wrap;html=1;fillColor=#3399FF;strokeColor=none;" vertex="1" parent="1">
          <mxGeometry x="360" y="1190" width="120" height="60" as="geometry" />
        </mxCell>
        <mxCell id="2aKKIYfe2P1ObAEWsnmQ-131" value="" style="html=1;labelBackgroundColor=#ffffff;jettySize=auto;orthogonalLoop=1;fontSize=14;rounded=0;jumpStyle=gap;startArrow=none;endArrow=block;endFill=1;strokeWidth=1;dashed=1;exitX=0;exitY=0;exitDx=0;exitDy=0;entryX=1;entryY=0.5;entryDx=0;entryDy=0;" edge="1" parent="1" source="2aKKIYfe2P1ObAEWsnmQ-129" target="2aKKIYfe2P1ObAEWsnmQ-130">
          <mxGeometry width="48" height="48" relative="1" as="geometry">
            <mxPoint x="350" y="1170" as="sourcePoint" />
            <mxPoint x="530" y="1171" as="targetPoint" />
          </mxGeometry>
        </mxCell>
        <mxCell id="2aKKIYfe2P1ObAEWsnmQ-132" value="&amp;lt;&amp;lt;incluir&amp;gt;&amp;gt;" style="edgeLabel;html=1;align=center;verticalAlign=middle;resizable=0;points=[];" connectable="0" vertex="1" parent="2aKKIYfe2P1ObAEWsnmQ-131">
          <mxGeometry x="-0.1046" relative="1" as="geometry">
            <mxPoint as="offset" />
          </mxGeometry>
        </mxCell>
        <mxCell id="2aKKIYfe2P1ObAEWsnmQ-133" value="&lt;font color=&quot;#ffffff&quot;&gt;Vincular con número de cuenta bancaria&lt;/font&gt;" style="ellipse;whiteSpace=wrap;html=1;fillColor=#3399FF;strokeColor=none;" vertex="1" parent="1">
          <mxGeometry x="585" y="1185" width="150" height="70" as="geometry" />
        </mxCell>
        <mxCell id="2aKKIYfe2P1ObAEWsnmQ-134" value="" style="html=1;labelBackgroundColor=#ffffff;jettySize=auto;orthogonalLoop=1;fontSize=14;rounded=0;jumpStyle=gap;startArrow=none;endArrow=block;endFill=1;strokeWidth=1;dashed=1;exitX=0.5;exitY=0;exitDx=0;exitDy=0;entryX=0.5;entryY=1;entryDx=0;entryDy=0;" edge="1" parent="1" source="2aKKIYfe2P1ObAEWsnmQ-129" target="2aKKIYfe2P1ObAEWsnmQ-133">
          <mxGeometry width="48" height="48" relative="1" as="geometry">
            <mxPoint x="350" y="1170" as="sourcePoint" />
            <mxPoint x="530" y="1171" as="targetPoint" />
          </mxGeometry>
        </mxCell>
        <mxCell id="2aKKIYfe2P1ObAEWsnmQ-135" value="&amp;lt;&amp;lt;incluir&amp;gt;&amp;gt;" style="edgeLabel;html=1;align=center;verticalAlign=middle;resizable=0;points=[];" connectable="0" vertex="1" parent="2aKKIYfe2P1ObAEWsnmQ-134">
          <mxGeometry x="-0.1046" relative="1" as="geometry">
            <mxPoint as="offset" />
          </mxGeometry>
        </mxCell>
        <mxCell id="2aKKIYfe2P1ObAEWsnmQ-136" value="&lt;font color=&quot;#ffffff&quot;&gt;Elegir tipo de Tarjeta&lt;/font&gt;" style="ellipse;whiteSpace=wrap;html=1;fillColor=#3399FF;strokeColor=none;" vertex="1" parent="1">
          <mxGeometry x="872.5" y="1305" width="110" height="70" as="geometry" />
        </mxCell>
        <mxCell id="2aKKIYfe2P1ObAEWsnmQ-137" value="" style="html=1;labelBackgroundColor=#ffffff;jettySize=auto;orthogonalLoop=1;fontSize=14;rounded=0;jumpStyle=gap;startArrow=none;endArrow=block;endFill=1;strokeWidth=1;dashed=1;exitX=1;exitY=0.5;exitDx=0;exitDy=0;entryX=0;entryY=0.5;entryDx=0;entryDy=0;" edge="1" parent="1" source="2aKKIYfe2P1ObAEWsnmQ-129" target="2aKKIYfe2P1ObAEWsnmQ-136">
          <mxGeometry width="48" height="48" relative="1" as="geometry">
            <mxPoint x="472" y="1329" as="sourcePoint" />
            <mxPoint x="580" y="1305" as="targetPoint" />
          </mxGeometry>
        </mxCell>
        <mxCell id="2aKKIYfe2P1ObAEWsnmQ-138" value="&amp;lt;&amp;lt;incluir&amp;gt;&amp;gt;" style="edgeLabel;html=1;align=center;verticalAlign=middle;resizable=0;points=[];" connectable="0" vertex="1" parent="2aKKIYfe2P1ObAEWsnmQ-137">
          <mxGeometry x="-0.1046" relative="1" as="geometry">
            <mxPoint as="offset" />
          </mxGeometry>
        </mxCell>
        <mxCell id="2aKKIYfe2P1ObAEWsnmQ-139" value="&lt;font color=&quot;#ffffff&quot;&gt;Ingresar Nombre del Titular&lt;/font&gt;" style="ellipse;whiteSpace=wrap;html=1;fillColor=#3399FF;strokeColor=none;" vertex="1" parent="1">
          <mxGeometry x="872.5" y="1190" width="110" height="60" as="geometry" />
        </mxCell>
        <mxCell id="2aKKIYfe2P1ObAEWsnmQ-140" value="" style="html=1;labelBackgroundColor=#ffffff;jettySize=auto;orthogonalLoop=1;fontSize=14;rounded=0;jumpStyle=gap;startArrow=none;endArrow=block;endFill=1;strokeWidth=1;dashed=1;exitX=1;exitY=0;exitDx=0;exitDy=0;entryX=0;entryY=0.5;entryDx=0;entryDy=0;" edge="1" parent="1" source="2aKKIYfe2P1ObAEWsnmQ-129" target="2aKKIYfe2P1ObAEWsnmQ-139">
          <mxGeometry width="48" height="48" relative="1" as="geometry">
            <mxPoint x="410" y="1430" as="sourcePoint" />
            <mxPoint x="590" y="1431" as="targetPoint" />
          </mxGeometry>
        </mxCell>
        <mxCell id="2aKKIYfe2P1ObAEWsnmQ-141" value="&amp;lt;&amp;lt;incluir&amp;gt;&amp;gt;" style="edgeLabel;html=1;align=center;verticalAlign=middle;resizable=0;points=[];" connectable="0" vertex="1" parent="2aKKIYfe2P1ObAEWsnmQ-140">
          <mxGeometry x="-0.1046" relative="1" as="geometry">
            <mxPoint as="offset" />
          </mxGeometry>
        </mxCell>
        <mxCell id="2aKKIYfe2P1ObAEWsnmQ-145" value="Creación de Tarjetas (Crédito o Débito)" style="text;html=1;align=center;verticalAlign=middle;resizable=0;points=[];autosize=1;strokeColor=none;fillColor=none;" vertex="1" parent="1">
          <mxGeometry x="320" y="1120" width="230" height="30" as="geometry" />
        </mxCell>
        <mxCell id="2aKKIYfe2P1ObAEWsnmQ-146" value="" style="group" connectable="0" vertex="1" parent="1">
          <mxGeometry x="220" y="1310" width="60" height="90" as="geometry" />
        </mxCell>
        <mxCell id="2aKKIYfe2P1ObAEWsnmQ-147" value="" style="image;aspect=fixed;perimeter=ellipsePerimeter;html=1;align=center;shadow=0;dashed=0;spacingTop=3;image=img/lib/active_directory/user.svg;" vertex="1" parent="2aKKIYfe2P1ObAEWsnmQ-146">
          <mxGeometry x="18.900000000000006" width="22.2" height="60" as="geometry" />
        </mxCell>
        <mxCell id="2aKKIYfe2P1ObAEWsnmQ-148" value="Banco" style="text;html=1;align=center;verticalAlign=middle;resizable=0;points=[];autosize=1;strokeColor=none;fillColor=none;" vertex="1" parent="2aKKIYfe2P1ObAEWsnmQ-146">
          <mxGeometry y="60" width="60" height="30" as="geometry" />
        </mxCell>
        <mxCell id="2aKKIYfe2P1ObAEWsnmQ-149" style="edgeStyle=orthogonalEdgeStyle;curved=1;rounded=0;orthogonalLoop=1;jettySize=auto;html=1;entryX=0;entryY=0.5;entryDx=0;entryDy=0;" edge="1" parent="1" source="2aKKIYfe2P1ObAEWsnmQ-147" target="2aKKIYfe2P1ObAEWsnmQ-129">
          <mxGeometry relative="1" as="geometry" />
        </mxCell>
        <mxCell id="2aKKIYfe2P1ObAEWsnmQ-153" value="&lt;font color=&quot;#ffffff&quot;&gt;Ingresar límite de crédito&lt;/font&gt;" style="ellipse;whiteSpace=wrap;html=1;fillColor=#3399FF;strokeColor=none;" vertex="1" parent="1">
          <mxGeometry x="867.5" y="1430" width="120" height="60" as="geometry" />
        </mxCell>
        <mxCell id="2aKKIYfe2P1ObAEWsnmQ-154" value="" style="html=1;labelBackgroundColor=#ffffff;jettySize=auto;orthogonalLoop=1;fontSize=14;rounded=0;jumpStyle=gap;startArrow=none;endArrow=block;endFill=1;strokeWidth=1;dashed=1;exitX=0.5;exitY=0;exitDx=0;exitDy=0;entryX=0.5;entryY=1;entryDx=0;entryDy=0;" edge="1" parent="1" source="2aKKIYfe2P1ObAEWsnmQ-153" target="2aKKIYfe2P1ObAEWsnmQ-136">
          <mxGeometry width="48" height="48" relative="1" as="geometry">
            <mxPoint x="770" y="1375" as="sourcePoint" />
            <mxPoint x="920" y="1340" as="targetPoint" />
          </mxGeometry>
        </mxCell>
        <mxCell id="2aKKIYfe2P1ObAEWsnmQ-155" value="&amp;lt;&amp;lt;extender&amp;gt;&amp;gt;" style="edgeLabel;html=1;align=center;verticalAlign=middle;resizable=0;points=[];" connectable="0" vertex="1" parent="2aKKIYfe2P1ObAEWsnmQ-154">
          <mxGeometry x="-0.1046" relative="1" as="geometry">
            <mxPoint as="offset" />
          </mxGeometry>
        </mxCell>
        <mxCell id="2aKKIYfe2P1ObAEWsnmQ-161" value="&lt;font color=&quot;#ffffff&quot;&gt;Enviar Solicitud con estado &quot;Pendiente&quot;&lt;/font&gt;" style="ellipse;whiteSpace=wrap;html=1;fillColor=#3399FF;strokeColor=none;" vertex="1" parent="1">
          <mxGeometry x="600" y="1430" width="120" height="60" as="geometry" />
        </mxCell>
        <mxCell id="2aKKIYfe2P1ObAEWsnmQ-162" value="" style="html=1;labelBackgroundColor=#ffffff;jettySize=auto;orthogonalLoop=1;fontSize=14;rounded=0;jumpStyle=gap;startArrow=none;endArrow=block;endFill=1;strokeWidth=1;dashed=1;exitX=0.5;exitY=1;exitDx=0;exitDy=0;entryX=0.5;entryY=0;entryDx=0;entryDy=0;" edge="1" parent="1" source="2aKKIYfe2P1ObAEWsnmQ-129" target="2aKKIYfe2P1ObAEWsnmQ-161">
          <mxGeometry width="48" height="48" relative="1" as="geometry">
            <mxPoint x="260" y="1570" as="sourcePoint" />
            <mxPoint x="692.5000000000068" y="1530" as="targetPoint" />
          </mxGeometry>
        </mxCell>
        <mxCell id="2aKKIYfe2P1ObAEWsnmQ-163" value="&amp;lt;&amp;lt;incluir&amp;gt;&amp;gt;" style="edgeLabel;html=1;align=center;verticalAlign=middle;resizable=0;points=[];" connectable="0" vertex="1" parent="2aKKIYfe2P1ObAEWsnmQ-162">
          <mxGeometry x="-0.1046" relative="1" as="geometry">
            <mxPoint as="offset" />
          </mxGeometry>
        </mxCell>
        <mxCell id="2aKKIYfe2P1ObAEWsnmQ-168" value="" style="rounded=0;whiteSpace=wrap;html=1;fillColor=none;strokeColor=#004C99;" vertex="1" parent="1">
          <mxGeometry x="320" y="1560" width="720" height="400" as="geometry" />
        </mxCell>
        <mxCell id="2aKKIYfe2P1ObAEWsnmQ-169" style="rounded=0;orthogonalLoop=1;jettySize=auto;html=1;entryX=0;entryY=0.5;entryDx=0;entryDy=0;" edge="1" parent="1" source="2aKKIYfe2P1ObAEWsnmQ-171" target="2aKKIYfe2P1ObAEWsnmQ-174">
          <mxGeometry relative="1" as="geometry" />
        </mxCell>
        <mxCell id="2aKKIYfe2P1ObAEWsnmQ-170" value="" style="group" connectable="0" vertex="1" parent="1">
          <mxGeometry x="220" y="1630" width="60" height="90" as="geometry" />
        </mxCell>
        <mxCell id="2aKKIYfe2P1ObAEWsnmQ-171" value="" style="image;aspect=fixed;perimeter=ellipsePerimeter;html=1;align=center;shadow=0;dashed=0;spacingTop=3;image=img/lib/active_directory/user.svg;" vertex="1" parent="2aKKIYfe2P1ObAEWsnmQ-170">
          <mxGeometry x="18.900000000000006" width="22.2" height="60" as="geometry" />
        </mxCell>
        <mxCell id="2aKKIYfe2P1ObAEWsnmQ-172" value="Usuario" style="text;html=1;align=center;verticalAlign=middle;resizable=0;points=[];autosize=1;strokeColor=none;fillColor=none;" vertex="1" parent="2aKKIYfe2P1ObAEWsnmQ-170">
          <mxGeometry y="60" width="60" height="30" as="geometry" />
        </mxCell>
        <mxCell id="2aKKIYfe2P1ObAEWsnmQ-173" value="&lt;font color=&quot;#ffffff&quot;&gt;Bloquear Tarjeta&lt;/font&gt;" style="ellipse;whiteSpace=wrap;html=1;fillColor=#3399FF;strokeColor=none;" vertex="1" parent="1">
          <mxGeometry x="620" y="1750" width="120" height="60" as="geometry" />
        </mxCell>
        <mxCell id="2aKKIYfe2P1ObAEWsnmQ-174" value="&lt;font color=&quot;#ffffff&quot;&gt;Ingresar al Sistema&lt;/font&gt;" style="ellipse;whiteSpace=wrap;html=1;fillColor=#3399FF;strokeColor=none;" vertex="1" parent="1">
          <mxGeometry x="360" y="1630" width="120" height="60" as="geometry" />
        </mxCell>
        <mxCell id="2aKKIYfe2P1ObAEWsnmQ-175" value="" style="html=1;labelBackgroundColor=#ffffff;jettySize=auto;orthogonalLoop=1;fontSize=14;rounded=0;jumpStyle=gap;startArrow=none;endArrow=block;endFill=1;strokeWidth=1;dashed=1;exitX=0;exitY=0;exitDx=0;exitDy=0;entryX=1;entryY=0.5;entryDx=0;entryDy=0;" edge="1" parent="1" source="2aKKIYfe2P1ObAEWsnmQ-173" target="2aKKIYfe2P1ObAEWsnmQ-174">
          <mxGeometry width="48" height="48" relative="1" as="geometry">
            <mxPoint x="350" y="1610" as="sourcePoint" />
            <mxPoint x="530" y="1611" as="targetPoint" />
          </mxGeometry>
        </mxCell>
        <mxCell id="2aKKIYfe2P1ObAEWsnmQ-176" value="&amp;lt;&amp;lt;incluir&amp;gt;&amp;gt;" style="edgeLabel;html=1;align=center;verticalAlign=middle;resizable=0;points=[];" connectable="0" vertex="1" parent="2aKKIYfe2P1ObAEWsnmQ-175">
          <mxGeometry x="-0.1046" relative="1" as="geometry">
            <mxPoint as="offset" />
          </mxGeometry>
        </mxCell>
        <mxCell id="2aKKIYfe2P1ObAEWsnmQ-177" value="&lt;font color=&quot;#ffffff&quot;&gt;Ingresar Número de la Tarjeta&lt;/font&gt;" style="ellipse;whiteSpace=wrap;html=1;fillColor=#3399FF;strokeColor=none;" vertex="1" parent="1">
          <mxGeometry x="605" y="1625" width="150" height="70" as="geometry" />
        </mxCell>
        <mxCell id="2aKKIYfe2P1ObAEWsnmQ-178" value="" style="html=1;labelBackgroundColor=#ffffff;jettySize=auto;orthogonalLoop=1;fontSize=14;rounded=0;jumpStyle=gap;startArrow=none;endArrow=block;endFill=1;strokeWidth=1;dashed=1;exitX=0.5;exitY=0;exitDx=0;exitDy=0;entryX=0.5;entryY=1;entryDx=0;entryDy=0;" edge="1" parent="1" source="2aKKIYfe2P1ObAEWsnmQ-173" target="2aKKIYfe2P1ObAEWsnmQ-177">
          <mxGeometry width="48" height="48" relative="1" as="geometry">
            <mxPoint x="350" y="1610" as="sourcePoint" />
            <mxPoint x="530" y="1611" as="targetPoint" />
          </mxGeometry>
        </mxCell>
        <mxCell id="2aKKIYfe2P1ObAEWsnmQ-179" value="&amp;lt;&amp;lt;incluir&amp;gt;&amp;gt;" style="edgeLabel;html=1;align=center;verticalAlign=middle;resizable=0;points=[];" connectable="0" vertex="1" parent="2aKKIYfe2P1ObAEWsnmQ-178">
          <mxGeometry x="-0.1046" relative="1" as="geometry">
            <mxPoint as="offset" />
          </mxGeometry>
        </mxCell>
        <mxCell id="2aKKIYfe2P1ObAEWsnmQ-180" value="&lt;font color=&quot;#ffffff&quot;&gt;Elegir tipo de Tarjeta&lt;/font&gt;" style="ellipse;whiteSpace=wrap;html=1;fillColor=#3399FF;strokeColor=none;" vertex="1" parent="1">
          <mxGeometry x="872.5" y="1745" width="110" height="70" as="geometry" />
        </mxCell>
        <mxCell id="2aKKIYfe2P1ObAEWsnmQ-181" value="" style="html=1;labelBackgroundColor=#ffffff;jettySize=auto;orthogonalLoop=1;fontSize=14;rounded=0;jumpStyle=gap;startArrow=none;endArrow=block;endFill=1;strokeWidth=1;dashed=1;exitX=1;exitY=0.5;exitDx=0;exitDy=0;entryX=0;entryY=0.5;entryDx=0;entryDy=0;" edge="1" parent="1" source="2aKKIYfe2P1ObAEWsnmQ-173" target="2aKKIYfe2P1ObAEWsnmQ-180">
          <mxGeometry width="48" height="48" relative="1" as="geometry">
            <mxPoint x="472" y="1769" as="sourcePoint" />
            <mxPoint x="580" y="1745" as="targetPoint" />
          </mxGeometry>
        </mxCell>
        <mxCell id="2aKKIYfe2P1ObAEWsnmQ-182" value="&amp;lt;&amp;lt;incluir&amp;gt;&amp;gt;" style="edgeLabel;html=1;align=center;verticalAlign=middle;resizable=0;points=[];" connectable="0" vertex="1" parent="2aKKIYfe2P1ObAEWsnmQ-181">
          <mxGeometry x="-0.1046" relative="1" as="geometry">
            <mxPoint as="offset" />
          </mxGeometry>
        </mxCell>
        <mxCell id="2aKKIYfe2P1ObAEWsnmQ-183" value="&lt;font color=&quot;#ffffff&quot;&gt;Ingresar Motivo del Bloqueo&lt;/font&gt;" style="ellipse;whiteSpace=wrap;html=1;fillColor=#3399FF;strokeColor=none;" vertex="1" parent="1">
          <mxGeometry x="865" y="1630" width="137.5" height="60" as="geometry" />
        </mxCell>
        <mxCell id="2aKKIYfe2P1ObAEWsnmQ-184" value="" style="html=1;labelBackgroundColor=#ffffff;jettySize=auto;orthogonalLoop=1;fontSize=14;rounded=0;jumpStyle=gap;startArrow=none;endArrow=block;endFill=1;strokeWidth=1;dashed=1;exitX=1;exitY=0;exitDx=0;exitDy=0;entryX=0;entryY=0.5;entryDx=0;entryDy=0;" edge="1" parent="1" source="2aKKIYfe2P1ObAEWsnmQ-173" target="2aKKIYfe2P1ObAEWsnmQ-183">
          <mxGeometry width="48" height="48" relative="1" as="geometry">
            <mxPoint x="410" y="1870" as="sourcePoint" />
            <mxPoint x="590" y="1871" as="targetPoint" />
          </mxGeometry>
        </mxCell>
        <mxCell id="2aKKIYfe2P1ObAEWsnmQ-185" value="&amp;lt;&amp;lt;incluir&amp;gt;&amp;gt;" style="edgeLabel;html=1;align=center;verticalAlign=middle;resizable=0;points=[];" connectable="0" vertex="1" parent="2aKKIYfe2P1ObAEWsnmQ-184">
          <mxGeometry x="-0.1046" relative="1" as="geometry">
            <mxPoint as="offset" />
          </mxGeometry>
        </mxCell>
        <mxCell id="2aKKIYfe2P1ObAEWsnmQ-186" value="Bloqueo de Tarjetas (Crédito o Débito)" style="text;html=1;align=center;verticalAlign=middle;resizable=0;points=[];autosize=1;strokeColor=none;fillColor=none;" vertex="1" parent="1">
          <mxGeometry x="320" y="1560" width="230" height="30" as="geometry" />
        </mxCell>
        <mxCell id="2aKKIYfe2P1ObAEWsnmQ-187" value="" style="group" connectable="0" vertex="1" parent="1">
          <mxGeometry x="220" y="1750" width="60" height="90" as="geometry" />
        </mxCell>
        <mxCell id="2aKKIYfe2P1ObAEWsnmQ-188" value="" style="image;aspect=fixed;perimeter=ellipsePerimeter;html=1;align=center;shadow=0;dashed=0;spacingTop=3;image=img/lib/active_directory/user.svg;" vertex="1" parent="2aKKIYfe2P1ObAEWsnmQ-187">
          <mxGeometry x="18.900000000000006" width="22.2" height="60" as="geometry" />
        </mxCell>
        <mxCell id="2aKKIYfe2P1ObAEWsnmQ-189" value="Banco" style="text;html=1;align=center;verticalAlign=middle;resizable=0;points=[];autosize=1;strokeColor=none;fillColor=none;" vertex="1" parent="2aKKIYfe2P1ObAEWsnmQ-187">
          <mxGeometry y="60" width="60" height="30" as="geometry" />
        </mxCell>
        <mxCell id="2aKKIYfe2P1ObAEWsnmQ-190" style="edgeStyle=orthogonalEdgeStyle;curved=1;rounded=0;orthogonalLoop=1;jettySize=auto;html=1;entryX=0;entryY=0.5;entryDx=0;entryDy=0;" edge="1" parent="1" source="2aKKIYfe2P1ObAEWsnmQ-188" target="2aKKIYfe2P1ObAEWsnmQ-173">
          <mxGeometry relative="1" as="geometry" />
        </mxCell>
        <mxCell id="2aKKIYfe2P1ObAEWsnmQ-192" value="" style="html=1;labelBackgroundColor=#ffffff;jettySize=auto;orthogonalLoop=1;fontSize=14;rounded=0;jumpStyle=gap;startArrow=none;endArrow=block;endFill=1;strokeWidth=1;dashed=1;exitX=0.809;exitY=0.874;exitDx=0;exitDy=0;entryX=0;entryY=0.5;entryDx=0;entryDy=0;exitPerimeter=0;" edge="1" parent="1" source="2aKKIYfe2P1ObAEWsnmQ-173" target="2aKKIYfe2P1ObAEWsnmQ-200">
          <mxGeometry width="48" height="48" relative="1" as="geometry">
            <mxPoint x="430" y="1760" as="sourcePoint" />
            <mxPoint x="880" y="1900" as="targetPoint" />
          </mxGeometry>
        </mxCell>
        <mxCell id="2aKKIYfe2P1ObAEWsnmQ-193" value="&amp;lt;&amp;lt;incluir&amp;gt;&amp;gt;" style="edgeLabel;html=1;align=center;verticalAlign=middle;resizable=0;points=[];" connectable="0" vertex="1" parent="2aKKIYfe2P1ObAEWsnmQ-192">
          <mxGeometry x="-0.1046" relative="1" as="geometry">
            <mxPoint as="offset" />
          </mxGeometry>
        </mxCell>
        <mxCell id="2aKKIYfe2P1ObAEWsnmQ-197" value="&lt;font color=&quot;#ffffff&quot;&gt;Validar Identidad&lt;/font&gt;" style="ellipse;whiteSpace=wrap;html=1;fillColor=#3399FF;strokeColor=none;" vertex="1" parent="1">
          <mxGeometry x="620" y="1870" width="120" height="60" as="geometry" />
        </mxCell>
        <mxCell id="2aKKIYfe2P1ObAEWsnmQ-198" value="" style="html=1;labelBackgroundColor=#ffffff;jettySize=auto;orthogonalLoop=1;fontSize=14;rounded=0;jumpStyle=gap;startArrow=none;endArrow=block;endFill=1;strokeWidth=1;dashed=1;exitX=0.5;exitY=1;exitDx=0;exitDy=0;entryX=0.5;entryY=0;entryDx=0;entryDy=0;" edge="1" parent="1" source="2aKKIYfe2P1ObAEWsnmQ-173" target="2aKKIYfe2P1ObAEWsnmQ-197">
          <mxGeometry width="48" height="48" relative="1" as="geometry">
            <mxPoint x="260" y="2010" as="sourcePoint" />
            <mxPoint x="692.5000000000068" y="1970" as="targetPoint" />
          </mxGeometry>
        </mxCell>
        <mxCell id="2aKKIYfe2P1ObAEWsnmQ-199" value="&amp;lt;&amp;lt;incluir&amp;gt;&amp;gt;" style="edgeLabel;html=1;align=center;verticalAlign=middle;resizable=0;points=[];" connectable="0" vertex="1" parent="2aKKIYfe2P1ObAEWsnmQ-198">
          <mxGeometry x="-0.1046" relative="1" as="geometry">
            <mxPoint as="offset" />
          </mxGeometry>
        </mxCell>
        <mxCell id="2aKKIYfe2P1ObAEWsnmQ-200" value="&lt;font color=&quot;#ffffff&quot;&gt;Capturar fecha y hora de actualización&lt;/font&gt;" style="ellipse;whiteSpace=wrap;html=1;fillColor=#3399FF;strokeColor=none;" vertex="1" parent="1">
          <mxGeometry x="872.5" y="1865" width="110" height="70" as="geometry" />
        </mxCell>
        <mxCell id="2aKKIYfe2P1ObAEWsnmQ-204" style="rounded=0;orthogonalLoop=1;jettySize=auto;html=1;entryX=0;entryY=0.5;entryDx=0;entryDy=0;" edge="1" parent="1" source="2aKKIYfe2P1ObAEWsnmQ-206" target="2aKKIYfe2P1ObAEWsnmQ-209">
          <mxGeometry relative="1" as="geometry" />
        </mxCell>
        <mxCell id="2aKKIYfe2P1ObAEWsnmQ-205" value="" style="group" connectable="0" vertex="1" parent="1">
          <mxGeometry x="220" y="2070" width="60" height="90" as="geometry" />
        </mxCell>
        <mxCell id="2aKKIYfe2P1ObAEWsnmQ-206" value="" style="image;aspect=fixed;perimeter=ellipsePerimeter;html=1;align=center;shadow=0;dashed=0;spacingTop=3;image=img/lib/active_directory/user.svg;" vertex="1" parent="2aKKIYfe2P1ObAEWsnmQ-205">
          <mxGeometry x="18.900000000000006" width="22.2" height="60" as="geometry" />
        </mxCell>
        <mxCell id="2aKKIYfe2P1ObAEWsnmQ-207" value="Usuario" style="text;html=1;align=center;verticalAlign=middle;resizable=0;points=[];autosize=1;strokeColor=none;fillColor=none;" vertex="1" parent="2aKKIYfe2P1ObAEWsnmQ-205">
          <mxGeometry y="60" width="60" height="30" as="geometry" />
        </mxCell>
        <mxCell id="2aKKIYfe2P1ObAEWsnmQ-208" value="&lt;font color=&quot;#ffffff&quot;&gt;Cancelación de Servicio&lt;/font&gt;" style="ellipse;whiteSpace=wrap;html=1;fillColor=#3399FF;strokeColor=none;" vertex="1" parent="1">
          <mxGeometry x="620" y="2190" width="120" height="60" as="geometry" />
        </mxCell>
        <mxCell id="2aKKIYfe2P1ObAEWsnmQ-209" value="&lt;font color=&quot;#ffffff&quot;&gt;Ingresar al Sistema&lt;/font&gt;" style="ellipse;whiteSpace=wrap;html=1;fillColor=#3399FF;strokeColor=none;" vertex="1" parent="1">
          <mxGeometry x="360" y="2070" width="120" height="60" as="geometry" />
        </mxCell>
        <mxCell id="2aKKIYfe2P1ObAEWsnmQ-210" value="" style="html=1;labelBackgroundColor=#ffffff;jettySize=auto;orthogonalLoop=1;fontSize=14;rounded=0;jumpStyle=gap;startArrow=none;endArrow=block;endFill=1;strokeWidth=1;dashed=1;exitX=0;exitY=0;exitDx=0;exitDy=0;entryX=1;entryY=0.5;entryDx=0;entryDy=0;" edge="1" parent="1" source="2aKKIYfe2P1ObAEWsnmQ-208" target="2aKKIYfe2P1ObAEWsnmQ-209">
          <mxGeometry width="48" height="48" relative="1" as="geometry">
            <mxPoint x="350" y="2050" as="sourcePoint" />
            <mxPoint x="530" y="2051" as="targetPoint" />
          </mxGeometry>
        </mxCell>
        <mxCell id="2aKKIYfe2P1ObAEWsnmQ-211" value="&amp;lt;&amp;lt;incluir&amp;gt;&amp;gt;" style="edgeLabel;html=1;align=center;verticalAlign=middle;resizable=0;points=[];" connectable="0" vertex="1" parent="2aKKIYfe2P1ObAEWsnmQ-210">
          <mxGeometry x="-0.1046" relative="1" as="geometry">
            <mxPoint as="offset" />
          </mxGeometry>
        </mxCell>
        <mxCell id="2aKKIYfe2P1ObAEWsnmQ-212" value="&lt;font color=&quot;#ffffff&quot;&gt;Ingresar Número de Cuenta&lt;/font&gt;" style="ellipse;whiteSpace=wrap;html=1;fillColor=#3399FF;strokeColor=none;" vertex="1" parent="1">
          <mxGeometry x="605" y="2065" width="150" height="70" as="geometry" />
        </mxCell>
        <mxCell id="2aKKIYfe2P1ObAEWsnmQ-213" value="" style="html=1;labelBackgroundColor=#ffffff;jettySize=auto;orthogonalLoop=1;fontSize=14;rounded=0;jumpStyle=gap;startArrow=none;endArrow=block;endFill=1;strokeWidth=1;dashed=1;exitX=0.5;exitY=0;exitDx=0;exitDy=0;entryX=0.5;entryY=1;entryDx=0;entryDy=0;" edge="1" parent="1" source="2aKKIYfe2P1ObAEWsnmQ-208" target="2aKKIYfe2P1ObAEWsnmQ-212">
          <mxGeometry width="48" height="48" relative="1" as="geometry">
            <mxPoint x="350" y="2050" as="sourcePoint" />
            <mxPoint x="530" y="2051" as="targetPoint" />
          </mxGeometry>
        </mxCell>
        <mxCell id="2aKKIYfe2P1ObAEWsnmQ-214" value="&amp;lt;&amp;lt;incluir&amp;gt;&amp;gt;" style="edgeLabel;html=1;align=center;verticalAlign=middle;resizable=0;points=[];" connectable="0" vertex="1" parent="2aKKIYfe2P1ObAEWsnmQ-213">
          <mxGeometry x="-0.1046" relative="1" as="geometry">
            <mxPoint as="offset" />
          </mxGeometry>
        </mxCell>
        <mxCell id="2aKKIYfe2P1ObAEWsnmQ-215" value="&lt;font color=&quot;#ffffff&quot;&gt;Ingresar motivo de cancelación&lt;/font&gt;" style="ellipse;whiteSpace=wrap;html=1;fillColor=#3399FF;strokeColor=none;" vertex="1" parent="1">
          <mxGeometry x="872.5" y="2185" width="110" height="70" as="geometry" />
        </mxCell>
        <mxCell id="2aKKIYfe2P1ObAEWsnmQ-216" value="" style="html=1;labelBackgroundColor=#ffffff;jettySize=auto;orthogonalLoop=1;fontSize=14;rounded=0;jumpStyle=gap;startArrow=none;endArrow=block;endFill=1;strokeWidth=1;dashed=1;exitX=1;exitY=0.5;exitDx=0;exitDy=0;entryX=0;entryY=0.5;entryDx=0;entryDy=0;" edge="1" parent="1" source="2aKKIYfe2P1ObAEWsnmQ-208" target="2aKKIYfe2P1ObAEWsnmQ-215">
          <mxGeometry width="48" height="48" relative="1" as="geometry">
            <mxPoint x="472" y="2209" as="sourcePoint" />
            <mxPoint x="580" y="2185" as="targetPoint" />
          </mxGeometry>
        </mxCell>
        <mxCell id="2aKKIYfe2P1ObAEWsnmQ-217" value="&amp;lt;&amp;lt;incluir&amp;gt;&amp;gt;" style="edgeLabel;html=1;align=center;verticalAlign=middle;resizable=0;points=[];" connectable="0" vertex="1" parent="2aKKIYfe2P1ObAEWsnmQ-216">
          <mxGeometry x="-0.1046" relative="1" as="geometry">
            <mxPoint as="offset" />
          </mxGeometry>
        </mxCell>
        <mxCell id="2aKKIYfe2P1ObAEWsnmQ-218" value="&lt;font color=&quot;#ffffff&quot;&gt;Seleccionar Cuenta o Tarjeta&lt;/font&gt;" style="ellipse;whiteSpace=wrap;html=1;fillColor=#3399FF;strokeColor=none;" vertex="1" parent="1">
          <mxGeometry x="865" y="2070" width="137.5" height="60" as="geometry" />
        </mxCell>
        <mxCell id="2aKKIYfe2P1ObAEWsnmQ-219" value="" style="html=1;labelBackgroundColor=#ffffff;jettySize=auto;orthogonalLoop=1;fontSize=14;rounded=0;jumpStyle=gap;startArrow=none;endArrow=block;endFill=1;strokeWidth=1;dashed=1;exitX=1;exitY=0;exitDx=0;exitDy=0;entryX=0;entryY=0.5;entryDx=0;entryDy=0;" edge="1" parent="1" source="2aKKIYfe2P1ObAEWsnmQ-208" target="2aKKIYfe2P1ObAEWsnmQ-218">
          <mxGeometry width="48" height="48" relative="1" as="geometry">
            <mxPoint x="410" y="2310" as="sourcePoint" />
            <mxPoint x="590" y="2311" as="targetPoint" />
          </mxGeometry>
        </mxCell>
        <mxCell id="2aKKIYfe2P1ObAEWsnmQ-220" value="&amp;lt;&amp;lt;incluir&amp;gt;&amp;gt;" style="edgeLabel;html=1;align=center;verticalAlign=middle;resizable=0;points=[];" connectable="0" vertex="1" parent="2aKKIYfe2P1ObAEWsnmQ-219">
          <mxGeometry x="-0.1046" relative="1" as="geometry">
            <mxPoint as="offset" />
          </mxGeometry>
        </mxCell>
        <mxCell id="2aKKIYfe2P1ObAEWsnmQ-221" value="Solicitud de Cancelación Cuenta o Tarjeta" style="text;html=1;align=center;verticalAlign=middle;resizable=0;points=[];autosize=1;strokeColor=none;fillColor=none;" vertex="1" parent="1">
          <mxGeometry x="320" y="2000" width="250" height="30" as="geometry" />
        </mxCell>
        <mxCell id="2aKKIYfe2P1ObAEWsnmQ-222" value="" style="group" connectable="0" vertex="1" parent="1">
          <mxGeometry x="220" y="2190" width="60" height="90" as="geometry" />
        </mxCell>
        <mxCell id="2aKKIYfe2P1ObAEWsnmQ-223" value="" style="image;aspect=fixed;perimeter=ellipsePerimeter;html=1;align=center;shadow=0;dashed=0;spacingTop=3;image=img/lib/active_directory/user.svg;" vertex="1" parent="2aKKIYfe2P1ObAEWsnmQ-222">
          <mxGeometry x="18.900000000000006" width="22.2" height="60" as="geometry" />
        </mxCell>
        <mxCell id="2aKKIYfe2P1ObAEWsnmQ-224" value="Banco" style="text;html=1;align=center;verticalAlign=middle;resizable=0;points=[];autosize=1;strokeColor=none;fillColor=none;" vertex="1" parent="2aKKIYfe2P1ObAEWsnmQ-222">
          <mxGeometry y="60" width="60" height="30" as="geometry" />
        </mxCell>
        <mxCell id="2aKKIYfe2P1ObAEWsnmQ-225" style="edgeStyle=orthogonalEdgeStyle;curved=1;rounded=0;orthogonalLoop=1;jettySize=auto;html=1;entryX=0;entryY=0.5;entryDx=0;entryDy=0;" edge="1" parent="1" source="2aKKIYfe2P1ObAEWsnmQ-223" target="2aKKIYfe2P1ObAEWsnmQ-208">
          <mxGeometry relative="1" as="geometry" />
        </mxCell>
        <mxCell id="2aKKIYfe2P1ObAEWsnmQ-226" value="" style="html=1;labelBackgroundColor=#ffffff;jettySize=auto;orthogonalLoop=1;fontSize=14;rounded=0;jumpStyle=gap;startArrow=none;endArrow=block;endFill=1;strokeWidth=1;dashed=1;exitX=0.809;exitY=0.874;exitDx=0;exitDy=0;entryX=0;entryY=0.5;entryDx=0;entryDy=0;exitPerimeter=0;" edge="1" parent="1" source="2aKKIYfe2P1ObAEWsnmQ-208" target="2aKKIYfe2P1ObAEWsnmQ-231">
          <mxGeometry width="48" height="48" relative="1" as="geometry">
            <mxPoint x="430" y="2200" as="sourcePoint" />
            <mxPoint x="880" y="2340" as="targetPoint" />
          </mxGeometry>
        </mxCell>
        <mxCell id="2aKKIYfe2P1ObAEWsnmQ-227" value="&amp;lt;&amp;lt;incluir&amp;gt;&amp;gt;" style="edgeLabel;html=1;align=center;verticalAlign=middle;resizable=0;points=[];" connectable="0" vertex="1" parent="2aKKIYfe2P1ObAEWsnmQ-226">
          <mxGeometry x="-0.1046" relative="1" as="geometry">
            <mxPoint as="offset" />
          </mxGeometry>
        </mxCell>
        <mxCell id="2aKKIYfe2P1ObAEWsnmQ-231" value="&lt;font color=&quot;#ffffff&quot;&gt;Capturar fecha y hora de actualización&lt;/font&gt;" style="ellipse;whiteSpace=wrap;html=1;fillColor=#3399FF;strokeColor=none;" vertex="1" parent="1">
          <mxGeometry x="872.5" y="2305" width="110" height="70" as="geometry" />
        </mxCell>
        <mxCell id="2aKKIYfe2P1ObAEWsnmQ-232" value="&lt;font color=&quot;#ffffff&quot;&gt;Validar Identidad&lt;/font&gt;" style="ellipse;whiteSpace=wrap;html=1;fillColor=#3399FF;strokeColor=none;" vertex="1" parent="1">
          <mxGeometry x="350" y="1430" width="120" height="60" as="geometry" />
        </mxCell>
        <mxCell id="2aKKIYfe2P1ObAEWsnmQ-233" value="" style="html=1;labelBackgroundColor=#ffffff;jettySize=auto;orthogonalLoop=1;fontSize=14;rounded=0;jumpStyle=gap;startArrow=none;endArrow=block;endFill=1;strokeWidth=1;dashed=1;entryX=1;entryY=0.5;entryDx=0;entryDy=0;exitX=0;exitY=0.5;exitDx=0;exitDy=0;" edge="1" parent="1" source="2aKKIYfe2P1ObAEWsnmQ-161" target="2aKKIYfe2P1ObAEWsnmQ-232">
          <mxGeometry width="48" height="48" relative="1" as="geometry">
            <mxPoint x="250" y="1460" as="sourcePoint" />
            <mxPoint x="250" y="1480" as="targetPoint" />
          </mxGeometry>
        </mxCell>
        <mxCell id="2aKKIYfe2P1ObAEWsnmQ-234" value="&amp;lt;&amp;lt;incluir&amp;gt;&amp;gt;" style="edgeLabel;html=1;align=center;verticalAlign=middle;resizable=0;points=[];" connectable="0" vertex="1" parent="2aKKIYfe2P1ObAEWsnmQ-233">
          <mxGeometry x="-0.1046" relative="1" as="geometry">
            <mxPoint as="offset" />
          </mxGeometry>
        </mxCell>
        <mxCell id="2aKKIYfe2P1ObAEWsnmQ-235" value="&lt;font color=&quot;#ffffff&quot;&gt;Enviar Solicitud con estado &quot;Pendiente&quot;&lt;/font&gt;" style="ellipse;whiteSpace=wrap;html=1;fillColor=#3399FF;strokeColor=none;" vertex="1" parent="1">
          <mxGeometry x="620" y="2310" width="120" height="60" as="geometry" />
        </mxCell>
        <mxCell id="2aKKIYfe2P1ObAEWsnmQ-236" value="" style="html=1;labelBackgroundColor=#ffffff;jettySize=auto;orthogonalLoop=1;fontSize=14;rounded=0;jumpStyle=gap;startArrow=none;endArrow=block;endFill=1;strokeWidth=1;dashed=1;entryX=0.5;entryY=0;entryDx=0;entryDy=0;exitX=0.5;exitY=1;exitDx=0;exitDy=0;" edge="1" parent="1" source="2aKKIYfe2P1ObAEWsnmQ-208" target="2aKKIYfe2P1ObAEWsnmQ-235">
          <mxGeometry width="48" height="48" relative="1" as="geometry">
            <mxPoint x="550" y="2460" as="sourcePoint" />
            <mxPoint x="712.5000000000068" y="2410" as="targetPoint" />
          </mxGeometry>
        </mxCell>
        <mxCell id="2aKKIYfe2P1ObAEWsnmQ-237" value="&amp;lt;&amp;lt;incluir&amp;gt;&amp;gt;" style="edgeLabel;html=1;align=center;verticalAlign=middle;resizable=0;points=[];" connectable="0" vertex="1" parent="2aKKIYfe2P1ObAEWsnmQ-236">
          <mxGeometry x="-0.1046" relative="1" as="geometry">
            <mxPoint as="offset" />
          </mxGeometry>
        </mxCell>
        <mxCell id="2aKKIYfe2P1ObAEWsnmQ-238" value="&lt;font color=&quot;#ffffff&quot;&gt;Validar Identidad&lt;/font&gt;" style="ellipse;whiteSpace=wrap;html=1;fillColor=#3399FF;strokeColor=none;" vertex="1" parent="1">
          <mxGeometry x="370" y="2310" width="120" height="60" as="geometry" />
        </mxCell>
        <mxCell id="2aKKIYfe2P1ObAEWsnmQ-239" value="" style="html=1;labelBackgroundColor=#ffffff;jettySize=auto;orthogonalLoop=1;fontSize=14;rounded=0;jumpStyle=gap;startArrow=none;endArrow=block;endFill=1;strokeWidth=1;dashed=1;entryX=1;entryY=0.5;entryDx=0;entryDy=0;exitX=0;exitY=0.5;exitDx=0;exitDy=0;" edge="1" parent="1" source="2aKKIYfe2P1ObAEWsnmQ-235" target="2aKKIYfe2P1ObAEWsnmQ-238">
          <mxGeometry width="48" height="48" relative="1" as="geometry">
            <mxPoint x="270" y="2340" as="sourcePoint" />
            <mxPoint x="270" y="2360" as="targetPoint" />
          </mxGeometry>
        </mxCell>
        <mxCell id="2aKKIYfe2P1ObAEWsnmQ-240" value="&amp;lt;&amp;lt;incluir&amp;gt;&amp;gt;" style="edgeLabel;html=1;align=center;verticalAlign=middle;resizable=0;points=[];" connectable="0" vertex="1" parent="2aKKIYfe2P1ObAEWsnmQ-239">
          <mxGeometry x="-0.1046" relative="1" as="geometry">
            <mxPoint as="offset" />
          </mxGeometry>
        </mxCell>
      </root>
    </mxGraphModel>
  </diagram>
</mxfile>
